<?xml version="1.0" encoding="utf-8"?>
<!-- Generator: Adobe Illustrator 26.0.2, SVG Export Plug-In . SVG Version: 6.00 Build 0)  -->
<svg version="1.1" id="Layer_1" xmlns="http://www.w3.org/2000/svg" xmlns:xlink="http://www.w3.org/1999/xlink" x="0px" y="0px"
	 viewBox="0 0 50 50" style="enable-background:new 0 0 50 50;" xml:space="preserve">
<style type="text/css">
	.st0{fill:#231F20;}
</style>
<path class="st0" d="M25,5C14,5,5,14,5,25s9,20,20,20s20-9,20-20S36,5,25,5z M29.2,37c-1.4,0.5-2.9,1-4.6,1
	c-2.2-0.2-3.7-1.6-3.5-3.8c0.2-2.2,1-4.2,1.4-6.4c0.2-1,0.5-1.9,0.5-2.9c0-1.3-0.5-1.6-1.6-1.6c-0.5,0-0.8,0.2-1.3,0.2
	c-0.3,0-0.8,0.5-0.8,0c-0.2-0.3,0-1.1,0.5-1.3c2.1-1,4.2-1.8,6.4-1c1.4,0.5,2.2,1.6,2.2,3c0,1.1-0.3,2.2-0.5,3.4
	c-0.5,1.9-1.1,3.7-1.4,5.6c-0.3,2.1,0.2,2.6,2.2,2.4c0.5,0,0.8-0.2,1.4-0.3C30.3,36.2,30.1,36.7,29.2,37z M27.4,18
	c-1.8,0-3.2-1.3-3.2-2.9c0-1.8,1.4-3,3.2-3s3.2,1.4,3.2,3C30.8,16.7,29.3,18,27.4,18z"/>
</svg>
