<?xml version="1.0" encoding="utf-8"?>
<!-- Generator: Adobe Illustrator 26.0.2, SVG Export Plug-In . SVG Version: 6.00 Build 0)  -->
<svg version="1.1" id="Layer_1" xmlns="http://www.w3.org/2000/svg" xmlns:xlink="http://www.w3.org/1999/xlink" x="0px" y="0px"
	 viewBox="0 0 50 50" style="enable-background:new 0 0 50 50;" xml:space="preserve">
<g>
	<g>
		<path d="M27.8,2.6c1.7,0.4,3.4,0.8,4.9,1.6c3.3,1.9,5.4,4.9,6.6,8.4c0.3,0.8,0.5,1.5,1.5,1.7c1,0.2,1.5,1.1,1.5,2.1
			c0,2.6,0,5.2,0,7.7c0,1.3-0.9,2.2-2.3,2.4c-2.3,0.4-2.6,0.2-2.6-2.2c0-2.8-0.1-5.6,0-8.4c0.1-3.9-1.6-6.8-4.5-9.1
			C29,4,24.6,4.1,20.1,5.6c-3.7,1.3-6,3.9-7,7.6C13,13.8,13,14.4,13,15c0,3.3,0,6.6,0,9.8c0,2.7,1.4,4.5,3.8,5.7
			c1.1,0.5,2.1,0.6,3.2-0.2c1.5-1.2,4.3-1,5.8,0.2c1,0.8,1,1.9,0,2.7c-1.5,1.3-4.4,1.4-6,0.2c-0.3-0.3-0.7-0.5-1.1-0.6
			c-3.3-0.2-5.5-2.1-6.9-5c-0.3-0.7-0.6-1.1-1.4-1.2c-1.5-0.2-2.2-1.2-2.2-2.6c0-2.4,0-4.8,0-7.1c0-1.5,0.6-2.3,2.1-2.7
			c0.4-0.1,0.6-0.2,0.7-0.7c1.3-6.3,5.5-9.6,11.6-10.8c0.2,0,0.5-0.1,0.7-0.2C24.7,2.6,26.3,2.6,27.8,2.6z"/>
		<path d="M29.4,47.8c1.6-4.1,3.2-8.2,4.7-12.4c0.3-0.9,0.6-1,1.4-0.5c2.3,1.4,4.8,2.4,7.3,3.3c0.5,0.2,0.9,0.3,1.4,0.5
			c1.9,0.6,3.2,1.8,3.5,3.9c0,1.5,0,3.1,0,4.6c0,0.5-0.1,0.6-0.6,0.6C41.2,47.8,35.3,47.8,29.4,47.8z"/>
		<path d="M2.7,45c0.2-0.5,0.2-1,0.1-1.5c-0.1-1.7,0.7-2.9,2.3-3.5c1.8-0.7,3.6-1.4,5.4-2.2c1.7-0.7,3.3-1.5,4.8-2.5
			c0.5-0.3,0.8-0.3,1.1,0.3c1.5,4,3.1,8.1,4.6,12.1c-5.8,0-11.7,0-17.5,0c-0.7,0-0.9-0.2-0.8-0.8C2.8,46.3,2.7,45.7,2.7,45z"/>
		<path d="M22.4,47.8c0.4-1.9,0.8-3.9,1.2-5.8c0.1-0.5,0-0.8-0.5-0.9c-0.8-0.2-1.1-0.7-1.1-1.5c0-0.4,0-0.8,0-1.2
			c0-1.1,0.5-1.5,1.5-1.5c1.1,0,2.3,0,3.4,0c1.1,0,1.5,0.4,1.6,1.6c0,0.5,0,0.9,0,1.4c0,0.5-0.3,1-0.9,1.1c-0.9,0.1-0.8,0.6-0.7,1.3
			c0.3,1.8,0.9,3.6,0.9,5.5C26,47.8,24.2,47.8,22.4,47.8z"/>
		<path d="M24.7,35.5c0.7-0.4,1.3-0.7,1.8-1.1c1.9-1.5,1.9-3.8-0.1-5.2c-2-1.4-5.3-1.6-7.3-0.2c-0.7,0.5-1,0.4-1.4-0.3
			c-0.6-1.2-1.3-2.2-2.1-3.2c-1.4-1.8-1.8-4-1.6-6.3c0-0.6,0.2-1.2,0.7-1.6c0.3-0.2,0.3-0.5,0.3-0.9c-0.3-5.4,3.4-9.6,8.8-10.1
			C27,6.2,30,6.9,32.4,9.1c2.1,1.8,2.9,4.2,3,7c0,0.7,0,1.4,0.6,1.9c0.4,0.3,0.4,0.9,0.4,1.4c0,2.6-0.6,5-2.5,7.1
			c-1.1,1.2-2.1,2.8-2.3,4.6c-0.3,1.9-1.2,3.2-2.9,3.9C27.5,35.4,26.3,35.8,24.7,35.5z"/>
	</g>
</g>
</svg>
