<?xml version="1.0" encoding="utf-8"?>
<!-- Generator: Adobe Illustrator 26.0.2, SVG Export Plug-In . SVG Version: 6.00 Build 0)  -->
<svg version="1.1" id="Capa_1" xmlns="http://www.w3.org/2000/svg" xmlns:xlink="http://www.w3.org/1999/xlink" x="0px" y="0px"
	 viewBox="0 0 50 50" style="enable-background:new 0 0 50 50;" xml:space="preserve">
<g>
	<g>
		<g>
			<path d="M49.2,22.8l-7.6-7.6V6.4c0-1.6-1.3-2.9-2.9-2.9c-1.6,0-2.9,1.3-2.9,2.9v3l-5.6-5.6C27.4,1,22.6,1,19.8,3.8L0.8,22.8
				c-1.1,1.1-1.1,2.9,0,4.1c1.1,1.1,2.9,1.1,4.1,0L23.8,7.9c0.6-0.6,1.7-0.6,2.3,0l18.9,18.9c0.6,0.6,1.3,0.8,2,0.8
				c0.7,0,1.5-0.3,2-0.8C50.3,25.7,50.3,23.9,49.2,22.8z"/>
			<path d="M26,13.3c-0.6-0.6-1.4-0.6-2,0L7.3,30c-0.3,0.3-0.4,0.6-0.4,1v12.2c0,2.9,2.3,5.2,5.2,5.2h8.3V35.5h9.3v12.8h8.3
				c2.9,0,5.2-2.3,5.2-5.2V31c0-0.4-0.1-0.7-0.4-1L26,13.3z"/>
		</g>
	</g>
</g>
</svg>
