<?xml version="1.0" encoding="utf-8"?>
<!-- Generator: Adobe Illustrator 26.0.2, SVG Export Plug-In . SVG Version: 6.00 Build 0)  -->
<svg version="1.1" id="Layer_1" xmlns="http://www.w3.org/2000/svg" xmlns:xlink="http://www.w3.org/1999/xlink" x="0px" y="0px"
	 viewBox="0 0 50 50" style="enable-background:new 0 0 50 50;" xml:space="preserve">
<style type="text/css">
	.st0{fill:#FFFFFF;}
</style>
<path class="st0" d="M41.3,31.7c-1.2-1.2-2.8-2-4.5-2.2l-6-6l10.1-10.1c0.1-0.1,0.2-0.3,0.3-0.4l2-3.7c0.3-0.5,0.3-1.2,0-1.7
	c-0.3-0.6-0.9-1-1.6-1c-0.3,0-0.6,0.1-0.8,0.2l-3.7,2c-0.2,0.1-0.3,0.2-0.4,0.3L26.5,19.2l-6-6c-0.2-1.7-0.9-3.2-2.2-4.5
	c-1.4-1.4-3.2-2.2-5.1-2.2c-0.6,0-1.2,0.1-1.8,0.3c-0.3,0.1-0.5,0.2-0.8,0.4c-0.3,0.3-0.5,0.8-0.5,1.3s0.2,0.9,0.5,1.3l2,2l-0.1,0.1
	l-2-2c-0.2-0.2-0.5-0.4-0.7-0.4C9.7,9.3,9.5,9.3,9.3,9.3c-0.8,0-1.5,0.5-1.7,1.3c-0.7,2.3,0,5,1.9,6.9c1.2,1.2,2.8,2,4.5,2.2
	l4.7,4.7c-0.3,0.2-0.6,0.4-0.9,0.7l-9.8,9.8c-1,1-1.5,2.3-1.6,3.6c0,1.4,0.5,2.7,1.4,3.6c0.9,0.9,2.1,1.4,3.4,1.4l0.2,0
	c1.4-0.1,2.6-0.6,3.6-1.6l9.8-9.8c0.3-0.3,0.5-0.6,0.7-0.9l4.7,4.7c0.2,1.7,0.9,3.2,2.2,4.5c1.4,1.4,3.2,2.2,5.1,2.2
	c0.6,0,1.2-0.1,1.8-0.3c0.3-0.1,0.5-0.2,0.7-0.4c0.7-0.7,0.7-1.8,0-2.5l-2-2l0.1-0.1l2,2c0.2,0.2,0.5,0.4,0.8,0.5
	c0.2,0.1,0.4,0.1,0.5,0.1c0.8,0,1.5-0.5,1.7-1.3l0-0.2C43.9,36.1,43.2,33.5,41.3,31.7z"/>
<path d="M21.4,28.7c0.3,0.3,0.3,0.8,0,1.1l-9,9c-0.3,0.3-0.8,0.3-1.1,0c-0.3-0.3-0.3-0.8,0-1.1l0,0l9-9C20.5,28.3,21,28.3,21.4,28.7
	z M42.3,38.3c-0.1,0.4-0.6,0.7-1,0.5c-0.1,0-0.2-0.1-0.3-0.2l-2.7-2.7l-1.5,1.5l2.7,2.7c0.3,0.3,0.3,0.8,0,1.1
	c-0.1,0.1-0.2,0.2-0.3,0.2c-0.5,0.1-1,0.2-1.5,0.2c-1.6,0-3.2-0.7-4.4-1.9c-1.2-1.2-1.8-2.7-1.9-4.2l-5.3-5.3
	c-0.1,0-0.1-0.1-0.2-0.1l-0.6-0.6c-0.2,0.7-0.6,1.3-1.1,1.8l-9.8,9.8c-0.8,0.8-1.8,1.2-2.9,1.3h-0.2c-1,0-2-0.4-2.8-1.1
	c-1.6-1.6-1.5-4.2,0.2-5.8l9.8-9.8c0.5-0.5,1.1-0.9,1.8-1.1l-0.6-0.6c-0.1-0.1-0.1-0.1-0.1-0.2l-5.3-5.3c-1.5,0-3.1-0.7-4.2-1.9
	c-1.6-1.6-2.3-3.9-1.7-5.9c0.1-0.4,0.6-0.7,1-0.5c0.1,0,0.2,0.1,0.3,0.2l2.7,2.7l1.5-1.5l-2.7-2.7c-0.3-0.3-0.3-0.8,0-1.1
	c0.1-0.1,0.2-0.2,0.3-0.2c2-0.6,4.3,0.1,5.9,1.7c1.2,1.2,1.8,2.7,1.9,4.2l7,7L37.3,9.8c0.1-0.1,0.1-0.1,0.2-0.1l3.7-2
	c0.4-0.2,0.9-0.1,1.1,0.3c0.1,0.2,0.1,0.5,0,0.8l-2,3.7c0,0.1-0.1,0.1-0.1,0.2L29.4,23.5l7,7c1.5,0,3,0.7,4.2,1.9
	C42.2,34,42.9,36.3,42.3,38.3L42.3,38.3z M27.7,27.2l-4.9-4.9l-1.2,1.2l4.9,4.9L27.7,27.2z M26.1,23.4l0.6,0.6L39,11.6l0.7-1.3
	L38.4,11L26.1,23.4z M15.3,17.3l5.1,5.1l1.8-1.8c0.3-0.3,0.8-0.3,1.1,0l1.6,1.6l0.5-0.5l-7.2-7.2c-0.2-0.2-0.2-0.4-0.2-0.6
	c0-1.2-0.5-2.4-1.4-3.4c-0.7-0.8-1.7-1.2-2.8-1.4l2.1,2.1c0.3,0.3,0.3,0.8,0,1.1L13.2,15c-0.3,0.3-0.8,0.3-1.1,0L10,12.9
	c0.1,1,0.6,2,1.4,2.8c0.9,0.9,2.2,1.5,3.4,1.4h0C15,17.1,15.2,17.1,15.3,17.3z M23.9,28.2l-2.1-2.1c-0.8-0.1-1.6,0.2-2.1,0.8
	l-9.8,9.8c-1,1-1.1,2.6-0.2,3.6c0.5,0.4,1.1,0.7,1.7,0.7c0.7,0,1.4-0.3,1.8-0.8l9.8-9.8c0.5-0.5,0.8-1.1,0.8-1.8
	C23.9,28.4,23.9,28.3,23.9,28.2z M40.9,36.3c-0.1-1-0.6-2-1.4-2.8c-0.9-0.9-2.2-1.5-3.4-1.4c-0.2,0-0.4-0.1-0.6-0.2l-7.2-7.2
	l-0.5,0.5l1.6,1.6c0.3,0.3,0.3,0.8,0,1.1l-1.8,1.8l5.1,5.1c0.2,0.2,0.2,0.4,0.2,0.6c0,1.2,0.5,2.4,1.4,3.4c0.7,0.8,1.7,1.2,2.8,1.4
	L35,37.9c-0.3-0.3-0.3-0.8,0-1.1c0,0,0,0,0,0l2.6-2.6c0.3-0.3,0.8-0.3,1.1,0L40.9,36.3z"/>
</svg>
