<?xml version="1.0" encoding="utf-8"?>
<!-- Generator: Adobe Illustrator 26.0.2, SVG Export Plug-In . SVG Version: 6.00 Build 0)  -->
<svg version="1.1" id="Capa_1" xmlns="http://www.w3.org/2000/svg" xmlns:xlink="http://www.w3.org/1999/xlink" x="0px" y="0px"
	 viewBox="0 0 50 50" style="enable-background:new 0 0 50 50;" xml:space="preserve">
<style type="text/css">
	.st0{fill:#FFFFFF;}
</style>
<path class="st0" d="M45.7,7.9c-0.2-0.2-0.5-0.3-0.7-0.3c-0.2,0-0.4,0.1-0.6,0.2l-27,22.1l-5.6-5.6c-0.9-0.9-2-1.3-3.2-1.3
	s-2.4,0.5-3.2,1.3c-1.8,1.8-1.8,4.7,0,6.4l11.3,11.3c0.2,0.2,0.4,0.3,0.7,0.3c0,0,0,0,0,0c0.3,0,0.5-0.1,0.7-0.4L45.8,9.3
	C46.1,8.9,46.1,8.3,45.7,7.9z M17.3,41.3L6,30.1c-1.4-1.4-1.4-3.6,0-5c1.4-1.4,3.6-1.4,5,0l6.3,6.3L45,8.7L17.3,41.3z"/>
<path d="M17.3,41.3L6,30.1c-1.4-1.4-1.4-3.6,0-5l0,0c1.4-1.4,3.6-1.4,5,0l6.3,6.3L45,8.7l0,0L17.3,41.3z"/>
</svg>
