<?xml version="1.0" encoding="utf-8"?>
<!-- Generator: Adobe Illustrator 26.0.2, SVG Export Plug-In . SVG Version: 6.00 Build 0)  -->
<svg version="1.1" id="Layer_1" xmlns="http://www.w3.org/2000/svg" xmlns:xlink="http://www.w3.org/1999/xlink" x="0px" y="0px"
	 viewBox="0 0 50 50" style="enable-background:new 0 0 50 50;" xml:space="preserve">
<g>
	<g>
		<g>
			<path d="M15,30.3l1.6-0.4c0.3-0.1,0.5-0.3,0.6-0.5c0.1-0.3,0.1-0.6,0-0.8c-0.3-0.6-0.5-1.1-0.7-1.7c-0.1-0.2-0.2-0.3-0.3-0.5
				c-0.8-0.7-1.4-1.6-1.5-2.7l-0.3-2.4c-0.1-1.1,0.2-2.2,0.9-3.1c0.2-0.2,0.2-0.4,0.2-0.7c0-0.4-0.1-0.8-0.1-1.1
				c0-1.2,0.2-2.3,0.6-3.2c0.1-0.3,0.1-0.7-0.1-0.9c-0.2-0.3-0.5-0.4-0.9-0.4c-1,0.1-1.8,0.4-2.5,0.8c-4.2,0.1-4.7,2.4-4.7,4.1
				c0,0.3,0.1,1,0.1,1.6c-0.2,0.1-0.3,0.2-0.4,0.4c-0.3,0.4-0.5,0.9-0.4,1.4L7.3,22c0.1,0.7,0.5,1.2,1.1,1.4
				c0.2,1.1,0.8,2.2,1.5,3.1l-0.2,0.7l-3.1,0.8c-2.5,0.6-4.2,2.8-4.2,5.4c0,0.5,0.4,0.9,0.9,0.9H9c0.3,0,0.6-0.2,0.8-0.4
				C11,32.1,12.9,30.8,15,30.3z"/>
			<path d="M34.5,32.1L30.1,31l-0.3-1.2c1.2-1.2,2-2.9,2.3-4.5c0.7-0.3,1.3-0.9,1.4-1.7l0.3-2.4c0.1-0.6-0.1-1.2-0.5-1.7
				c-0.2-0.2-0.4-0.4-0.6-0.5l0.1-2l0.4-0.4c0.6-0.7,1.5-2.1,0.1-4.2c-1-1.5-2.6-2.3-4.9-2.3c-0.9,0-2.9,0-4.7,1.2
				c-5.4,0.1-6.1,2.9-6.1,5.2c0,0.5,0.1,1.6,0.2,2.3c-0.3,0.1-0.5,0.3-0.7,0.5c-0.4,0.5-0.6,1.1-0.5,1.7l0.3,2.4
				c0.1,0.9,0.7,1.6,1.5,1.8c0.3,1.6,1.1,3.2,2.2,4.4L19.9,31l-4.5,1.1c-3.2,0.8-5.5,3.7-5.5,7c0,0.5,0.4,0.9,0.9,0.9h28.1
				c0.5,0,0.9-0.4,0.9-0.9C40,35.8,37.8,32.9,34.5,32.1z"/>
			<path d="M43.3,28.1l-3.1-0.8L40,26.7c0.8-0.9,1.4-2,1.6-3.2c0.5-0.3,0.9-0.8,1-1.4l0.2-1.8c0.1-0.5-0.1-1-0.4-1.4
				c-0.1-0.1-0.3-0.3-0.4-0.3l0.1-1.2l0.2-0.2c0.5-0.5,1.2-1.7,0.1-3.4c-0.5-0.8-1.6-1.8-3.8-1.8c-0.9,0-1.7,0.1-2.4,0.4
				c-0.5,0.2-0.7,0.6-0.6,1.1c0.3,1.4,0.1,2.8-0.8,3.9c-0.2,0.3-0.2,0.8,0,1.1c0.6,0.8,0.9,1.9,0.7,2.9l-0.3,2.4
				c-0.1,1-0.6,1.9-1.4,2.5c-0.1,0.1-0.2,0.3-0.3,0.4c-0.2,0.6-0.4,1.3-0.8,1.9c-0.1,0.3-0.1,0.6,0,0.8s0.4,0.5,0.6,0.5l1.5,0.4
				c2.1,0.5,4,1.9,5.3,3.7c0.2,0.3,0.5,0.4,0.8,0.4h5.5c0.5,0,0.9-0.4,0.9-0.9C47.5,30.9,45.8,28.7,43.3,28.1z"/>
		</g>
	</g>
</g>
</svg>
